#!OML:ASF X:\für Bonn\!DataBase\2005_08_10_Bjorn_Final\c3d\bjorn.ASF
:FULLY-SPECIFIED
:DEGREES
143
root -21.6628 19.4409 0.854269 66.4262 -89.495 -62.1703
lowerback -13.3062 4.46118 -4.74865
upperback 5.84627 7.56269 -6.52838
thorax 14.4005 3.38248 -2.75392
lowerneck -2.73575 -8.06341 6.16393
upperneck 27.3874 -14.971 6.47881
head 9.25071 -6.23384 -0.152447
rclavicle -3.53837e-014 1.59028e-015
rhumerus 13.8376 -8.17324 -62.0499
rradius 102.638
rwrist -7.86394
rhand -19.1267 10.4371
rfingers 7.12502
rthumb 7.18286 -19.421
lclavicle -3.53837e-014 1.59028e-015
lhumerus -22.1576 29.4397 71.8243
lradius 10.2201
lwrist -56.382
lhand -17.0497 -5.40863
lfingers 7.12502
lthumb 9.18736 24.3712
rfemur -11.887 -12.2551 15.8285
rtibia 24.8467
rfoot -9.38501 18.6763
rtoes 0.0134689
lfemur -10.8264 15.5168 -16.6345
ltibia 24.3182
lfoot -9.98145 -13.9384
ltoes -1.63061
144
root -21.6638 19.437 0.862395 80.6523 -89.5388 -76.534
lowerback -13.2274 4.3882 -4.566
upperback 5.96115 7.41845 -6.35825
thorax 14.4785 3.32338 -2.70439
lowerneck -2.59756 -8.01948 6.07862
upperneck 27.4772 -14.9376 6.54752
head 9.27015 -6.22343 -0.108988
rclavicle 5.00937e-014 -7.31528e-014
rhumerus 12.6492 -8.75093 -63.5595
rradius 104.41
rwrist -7.1414
rhand -20.1475 10.5658
rfingers 7.12502
rthumb 6.19741 -19.3236
lclavicle 5.00937e-014 -7.31528e-014
lhumerus -22.1812 29.0268 72.2527
lradius 10.2863
lwrist -56.2538
lhand -17.1113 -5.38746
lfingers 7.12502
lthumb 9.12792 24.395
rfemur -11.7355 -12.1395 15.7781
rtibia 24.8367
rfoot -9.44103 18.6552
rtoes -0.194855
lfemur -10.655 15.6512 -16.6177
ltibia 24.3265
lfoot -10.0159 -13.9846
ltoes -1.65667
145
root -21.6643 19.4348 0.870408 95.9604 -89.5641 -91.9725
lowerback -13.1558 4.30655 -4.39894
upperback 6.09501 7.26608 -6.17904
thorax 14.5802 3.25779 -2.6378
lowerneck -2.5026 -7.96836 5.9802
upperneck 27.5612 -14.8941 6.61474
head 9.29572 -6.20734 -0.0653977
rclavicle -1.18873e-013 1.47896e-013
rhumerus 11.4745 -9.35789 -65.0455
rradius 106.089
rwrist -6.4644
rhand -21.0539 10.7242
rfingers 7.12502
rthumb 5.32226 -19.189
lclavicle -1.18873e-013 1.47896e-013
lhumerus -22.193 28.837 72.6583
lradius 10.342
lwrist -56.3453
lhand -17.127 -5.40009
lfingers 7.12502
lthumb 9.11279 24.383
rfemur -11.5935 -11.9814 15.7126
rtibia 24.8325
rfoot -9.49628 18.6078
rtoes -0.301536
lfemur -10.4908 15.7787 -16.6153
ltibia 24.3282
lfoot -10.0078 -14.0257
ltoes -1.47455
146
root -21.6638 19.4322 0.880077 112.724 -89.5563 -108.888
lowerback -13.0495 4.23967 -4.19822
upperback 6.23189 7.12464 -6.00752
thorax 14.67 3.20152 -2.59783
lowerneck -2.40151 -7.93024 5.85031
upperneck 27.6405 -14.8774 6.7255
head 9.32504 -6.20342 -0.00441977
rclavicle 6.40087e-014 -3.81667e-014
rhumerus 10.2147 -9.99572 -66.4521
rradius 107.768
rwrist -5.97102
rhand -21.5753 10.8234
rfingers 7.12502
rthumb 4.81882 -19.1018
lclavicle 6.40087e-014 -3.81667e-014
lhumerus -22.171 28.4258 73.1393
lradius 10.4247
lwrist -56.228
lhand -17.0838 -5.41264
lfingers 7.12502
lthumb 9.15452 24.3687
rfemur -11.438 -11.8654 15.6347
rtibia 24.831
rfoot -9.54631 18.5975
rtoes -0.516321
lfemur -10.3038 15.9104 -16.6175
ltibia 24.331
lfoot -10.017 -14.0629
ltoes -1.46356
147
root -21.6629 19.4279 0.890235 131.171 -89.5248 -127.5
lowerback -12.9376 4.18214 -4.00878
upperback 6.38761 6.9985 -5.84063
thorax 14.779 3.15091 -2.55346
lowerneck -2.29624 -7.90679 5.7518
upperneck 27.6672 -14.865 6.80956
head 9.3297 -6.20329 0.0444975
rclavicle 3.97569e-016 4.29375e-014
rhumerus 8.90732 -10.6544 -67.7858
rradius 109.37
rwrist -5.59349
rhand -22.1668 10.9776
rfingers 7.12502
rthumb 4.24773 -18.9598
lclavicle 3.97569e-016 4.29375e-014
lhumerus -22.1032 27.9008 73.6848
lradius 10.5209
lwrist -56.0495
lhand -17.0029 -5.4235
lfingers 7.12502
lthumb 9.23258 24.3544
rfemur -11.271 -11.7636 15.5203
rtibia 24.8334
rfoot -9.56881 18.6369
rtoes -0.571786
lfemur -10.1025 15.6282 -16.6627
ltibia 24.3271
lfoot -10.0889 -13.7053
ltoes -1.28953
